<svg width="233" height="65" viewBox="0 0 233 65" fill="none" xmlns="http://www.w3.org/2000/svg">
<path d="M127.834 1.15991L117.042 29.1599H121.295L132.088 1.15991H127.834Z" fill="black"/>
<path d="M157.155 8.03991C155.536 8.03991 154.203 8.45591 153.156 9.31991C152.108 10.1839 151.442 11.0479 151.092 11.9119C149.918 9.38391 147.569 8.03991 145.156 8.03991C143.665 8.03991 142.458 8.48791 141.538 9.35191C140.617 10.2159 140.141 11.0159 140.078 11.7519V8.35991H135.983V24.9999H140.078V15.4319C140.459 13.2559 141.887 11.6559 144.172 11.6559C146.299 11.6559 147.759 13.2879 147.759 15.7519V24.9999H151.854V15.4319C152.362 13.3519 153.79 11.6559 155.981 11.6559C158.234 11.6559 159.536 13.1919 159.536 15.7519V24.9999H163.599V15.6879C163.599 13.0959 162.996 11.1759 161.758 9.92791C160.52 8.67991 158.996 8.03991 157.155 8.03991Z" fill="black"/>
<path d="M175.46 8.03991C171.746 8.03991 167.016 10.9199 167.016 16.7119C167.016 19.3999 167.905 21.5119 169.651 23.0479C171.428 24.5519 173.46 25.3199 175.745 25.3199C178.602 25.3199 180.824 24.4559 182.411 22.7599L180.158 20.5519C178.761 21.4479 177.809 21.8319 175.872 21.8319C173.46 21.8319 171.587 20.5199 171.079 18.1839H183.427C183.84 14.7279 182.919 11.9119 181.173 10.3759C179.491 8.83991 177.46 8.03991 175.46 8.03991ZM175.46 11.5599C177.491 11.5599 179.428 12.8719 179.777 15.1759H171.111C171.651 12.8719 173.524 11.5599 175.46 11.5599Z" fill="black"/>
<path d="M199.367 2.37591V10.7279H199.145C198.478 9.41591 196.605 8.03991 194.066 8.03991C192.002 8.03991 190.098 8.80791 188.416 10.3439C186.733 11.8479 185.908 13.9599 185.908 16.6799C185.908 19.3999 186.733 21.5119 188.416 23.0479C190.098 24.5519 192.002 25.3199 194.066 25.3199C196.605 25.3199 198.478 23.9439 199.145 22.6319H199.367V24.9999H203.43V11.1759H203.462V2.37591H199.367ZM191.272 20.3599C190.352 19.4959 189.876 18.2479 189.876 16.6799C189.876 15.1119 190.352 13.8639 191.272 12.9999C192.225 12.1359 193.336 11.6879 194.637 11.6879C195.939 11.6879 197.05 12.1359 198.002 12.9999C198.986 13.8639 199.462 15.1119 199.462 16.6799C199.462 18.2479 198.986 19.4959 198.002 20.3599C197.05 21.2239 195.939 21.6719 194.637 21.6719C193.336 21.6719 192.225 21.2239 191.272 20.3599Z" fill="black"/>
<path d="M207.781 2.37591V6.31191H211.876V2.37591H207.781ZM207.781 8.35991V24.9999H211.876V8.35991H207.781Z" fill="black"/>
<path d="M223.568 25.3199C226.107 25.3199 227.98 23.9439 228.647 22.6319H228.869V24.9999H232.932V8.35991H228.869V10.7279H228.647C227.98 9.41591 226.107 8.03991 223.568 8.03991C221.505 8.03991 219.6 8.80791 217.918 10.3439C216.236 11.8479 215.41 13.9599 215.41 16.6799C215.41 19.3999 216.236 21.5119 217.918 23.0479C219.6 24.5519 221.505 25.3199 223.568 25.3199ZM220.775 20.3599C219.854 19.4959 219.378 18.2479 219.378 16.6799C219.378 15.1119 219.854 13.8639 220.775 12.9999C221.727 12.1359 222.838 11.6879 224.139 11.6879C225.441 11.6879 226.552 12.1359 227.504 12.9999C228.488 13.8639 228.964 15.1119 228.964 16.6799C228.964 18.2479 228.488 19.4959 227.504 20.3599C226.552 21.2239 225.441 21.6719 224.139 21.6719C222.838 21.6719 221.727 21.2239 220.775 20.3599Z" fill="black"/>
<path d="M96.4597 24.0916C96.4597 10.7788 85.7494 0 72.521 0H0.704712V16.0611H72.521C76.9364 16.0611 80.5006 19.6481 80.5006 24.0916C80.5006 28.5352 76.9364 32.1222 72.521 32.1222H48.5822V48.1833H72.521C85.7494 48.1833 96.4597 37.4045 96.4597 24.0916Z" fill="black"/>
<path d="M48.5822 32.1221V16.061L0.704712 40.1527V48.1832V56.2138V64.2443H48.5822V48.1832H16.6639L48.5822 32.1221Z" fill="black"/>
<path d="M88.4802 64.2444C92.8872 64.2444 96.4598 60.649 96.4598 56.2139C96.4598 51.7787 92.8872 48.1833 88.4802 48.1833C84.0732 48.1833 80.5006 51.7787 80.5006 56.2139C80.5006 60.649 84.0732 64.2444 88.4802 64.2444Z" fill="black"/>
</svg>
